<svg xmlns="http://www.w3.org/2000/svg" width="24.135" height="19.613" viewBox="0 0 24.135 19.613">
  <g id="layer1" transform="translate(0)">
    <path id="path5" d="M306.455,398.629a9.9,9.9,0,0,1-2.844.78,4.966,4.966,0,0,0,2.177-2.739,9.912,9.912,0,0,1-3.144,1.2,4.956,4.956,0,0,0-8.437,4.516A14.057,14.057,0,0,1,284,397.214a4.957,4.957,0,0,0,1.532,6.611,4.932,4.932,0,0,1-2.243-.619c0,.021,0,.041,0,.062a4.955,4.955,0,0,0,3.972,4.855,4.962,4.962,0,0,1-2.236.085,4.956,4.956,0,0,0,4.626,3.438,9.934,9.934,0,0,1-6.15,2.12,10.068,10.068,0,0,1-1.181-.069A14.082,14.082,0,0,0,304,401.833q0-.322-.014-.641a10.06,10.06,0,0,0,2.471-2.563Z" transform="translate(-282.321 -396.308)" fill="#fff"/>
  </g>
</svg>
