<svg xmlns="http://www.w3.org/2000/svg" xmlns:xlink="http://www.w3.org/1999/xlink" width="25.961" height="25.961" viewBox="0 0 25.961 25.961">
  <defs>
    <clipPath id="clip-path">
      <rect id="background" width="24.961" height="24.961" rx="12.481" transform="translate(1230.634 26.825)" fill="none" stroke="#646464" stroke-width="1"/>
    </clipPath>
  </defs>
  <g id="OpenSea_Top" data-name="OpenSea Top" transform="translate(-1230.134 -26.325)">
    <g id="Component_4_1" data-name="Component 4 – 1" transform="translate(1230.634 26.825)">
      <g id="Mask_Group_3" data-name="Mask Group 3" transform="translate(-1230.634 -26.825)" clip-path="url(#clip-path)">
        <rect id="background-2" data-name="background" width="62.961" height="24.961" rx="12.481" transform="translate(1211.634 52.786)" fill="#ffc400" stroke="#ffc400" stroke-width="1"/>
        <g id="twitter" transform="translate(1056.634 -1668.175)">
          <rect id="background-3" data-name="background" width="24.961" height="24.961" rx="12.481" transform="translate(174 1695)" fill="none" stroke="#646464" stroke-width="1"/>
        </g>
        <g id="Logomark-Blue" transform="translate(1218.114 15.231)">
          <path id="Path_4" data-name="Path 4" d="M22.152,32.075,22.2,32l2.719-4.253a.093.093,0,0,1,.163.012,5.792,5.792,0,0,1,.662,3.072A4.8,4.8,0,0,1,25.206,32c-.031.059-.065.117-.1.173a.092.092,0,0,1-.077.041h-2.8A.093.093,0,0,1,22.152,32.075Z" transform="translate(-2.485 -7.454)" fill="#646464"/>
          <path id="Path_5" data-name="Path 5" d="M31.713,25.412v.673a.1.1,0,0,1-.058.088,3.328,3.328,0,0,0-1.224.837c-.76,1.064-1.341,2.585-2.64,2.585H22.376A3.491,3.491,0,0,1,18.9,26.089v-.062a.093.093,0,0,1,.093-.093h3.02a.1.1,0,0,1,.1.115,1.041,1.041,0,0,0,.108.583,1.062,1.062,0,0,0,.952.595h1.495V26.053H23.188a.1.1,0,0,1-.077-.15l.053-.079c.14-.2.34-.51.538-.863a6.776,6.776,0,0,0,.373-.748c.021-.046.038-.093.056-.14.029-.082.059-.158.08-.234s.038-.132.056-.2a3.041,3.041,0,0,0,.072-.685c0-.093,0-.191-.013-.285s-.017-.2-.03-.306-.025-.179-.042-.273c-.021-.136-.051-.272-.085-.408l-.012-.052c-.026-.093-.047-.183-.077-.276-.084-.293-.182-.579-.284-.846-.037-.106-.08-.208-.123-.31-.063-.154-.127-.293-.186-.425-.03-.06-.056-.115-.081-.171s-.059-.127-.089-.187-.046-.089-.063-.132l-.183-.339a.06.06,0,0,1,.067-.087l1.143.311h.007l.151.042.166.047.061.017V18.6a.592.592,0,0,1,.587-.6.578.578,0,0,1,.415.175.6.6,0,0,1,.172.422v1.014l.122.034a.1.1,0,0,1,.028.014l.127.1c.043.034.089.076.144.119.11.089.241.2.385.336.038.033.076.068.11.1.186.174.394.378.593.6.056.063.11.128.166.2s.114.136.165.2c.067.09.14.184.2.281.03.046.064.093.093.14.081.123.153.251.221.379.029.059.059.123.084.187a2.741,2.741,0,0,1,.174.519.65.65,0,0,1,.025.115v.009a.991.991,0,0,1,.021.162,1.743,1.743,0,0,1-.03.536,1.959,1.959,0,0,1-.063.224c-.026.073-.051.149-.084.221a3,3,0,0,1-.23.438c-.029.052-.063.106-.1.158s-.076.106-.11.157-.1.132-.148.192a2.038,2.038,0,0,1-.144.183c-.072.085-.14.165-.211.243-.043.05-.089.1-.136.148s-.093.1-.136.141c-.072.072-.131.128-.182.174l-.117.108a.1.1,0,0,1-.063.024h-.91v1.174h1.145a1.067,1.067,0,0,0,.7-.259,8.378,8.378,0,0,0,.708-.7.089.089,0,0,1,.044-.027l3.162-.919A.093.093,0,0,1,31.713,25.412Z" transform="translate(0)" fill="#646464"/>
        </g>
      </g>
    </g>
    <rect id="background-4" data-name="background" width="24.961" height="24.961" rx="12.481" transform="translate(1230.634 26.825)" fill="none" stroke="#646464" stroke-width="1"/>
  </g>
</svg>
